# xmcd
#
# Track frame offsets:
#	150
#	15238
#	45766
#	74020
#	105560
#	129085
#	145489
#	179938
#	205767
#	229888
#	254806
#
# Disc length: 3664 seconds
#
# Revision: 0
# Processed by: cddbd v1.5.2PL0 Copyright (c) Steve Scherf et al.
# Submitted via: EZCDAudioConverter 2.1.7.1
#
DISCID=9d0e4e0b
DTITLE=V/A - Doing It In Lagos 2/2
DYEAR=1900
DGENRE=
TTITLE0=Ofege - Burning Jungle
TTITLE1=Odion Iruoje - Identify With Your Root
TTITLE2=Mike Umoh - Shake Your Body
TTITLE3=Burnis Moleme - Where Is The Answer
TTITLE4=Sony Enang - Don't Stop That Music
TTITLE5=Veno - Groove I Like
TTITLE6=Godfrey Odili - Let's Do More Music
TTITLE7=Toby Foyeh - Ore Mi
TTITLE8=Gboyega Adelaja - Colourful Environment
TTITLE9=Lexy Mella - On The Air [Rap Mix]
TTITLE10=Nkono Teles - Be My Lady [Mix]
EXTD=
EXTT0=
EXTT1=
EXTT2=
EXTT3=
EXTT4=
EXTT5=
EXTT6=
EXTT7=
EXTT8=
EXTT9=
EXTT10=
PLAYORDER=
